<svg viewBox="0 0 512 512.00037" xmlns="http://www.w3.org/2000/svg"><path d="m120 451.996094c33.082031 0 60-26.917969 60-60 0-33.085938-26.917969-60-60-60-33.085938 0-60 26.914062-60 60 0 33.082031 26.914062 60 60 60zm0-90c16.539062 0 30 13.457031 30 30 0 16.542968-13.460938 30-30 30-16.542969 0-30-13.457032-30-30 0-16.542969 13.457031-30 30-30zm0 0"/><path d="m421.996094 120c16.539062 0 30-13.460938 30-30 0-16.542969-13.460938-30-30-30-16.542969 0-30 13.457031-30 30 0 16.539062 13.457031 30 30 30zm0 0"/><path d="m75.398438 503.429688c27.238281 10.9375 57.941406 11.421874 85.566406 1.359374.007812-.003906.019531-.007812.03125-.011718l240.652344-88.289063c.007812-.003906.011718-.003906.015624-.003906.007813-.003906.015626-.007813.023438-.011719h.007812c23.765626-8.667968 41.433594-28.511718 47.269532-53.089844l.003906-.019531c.003906-.007812.003906-.015625.003906-.023437.003906-.003906.003906-.007813.003906-.011719l60.582032-252.472656c.003906-.015625.007812-.03125.011718-.042969 1.605469-6.789062 2.421876-13.792969 2.421876-20.8125 0-49.625-40.375-90-90-90-21.496094 0-42.351563 7.597656-58.9375 21.984375-.003907 0-.003907.003906-.007813.003906l-321.78125 279.328125c-.003906 0-.007813.003906-.007813.003906-26.21875 22.738282-41.257812 55.789063-41.257812 90.675782 0 49.351562 29.601562 93.09375 75.398438 111.433594zm346.597656-323.433594c14.945312 0 29.664062-3.777344 42.714844-10.804688l-30.957032 129.015625c-13.769531-16.609375-34.546875-27.210937-57.757812-27.210937-41.355469 0-75 33.644531-75 75 0 25.886718 13.035156 49.300781 34.152344 62.9375l-109.765626 40.269531c9.382813-17.226563 14.617188-36.8125 14.617188-57.207031 0-65.902344-53.402344-119.558594-119.207031-119.988282l211.222656-183.355468c-.007813.449218-.019531.898437-.019531 1.347656 0 49.625 40.375 89.996094 90 89.996094zm-30.601563 208.300781c-10.25 3.734375-21.804687 3.625-32.121093-.507813-17.179688-6.878906-28.277344-23.285156-28.277344-41.792968 0-24.8125 20.1875-45 45-45 28.890625 0 50.511718 27.058594 43.789062 55.429687-3.496094 14.753907-14.109375 26.667969-28.390625 31.871094zm30.601563-358.296875c33.082031 0 60 26.914062 60 60 0 4.695312-.542969 9.371094-1.613282 13.890625l-.003906.015625c-6.433594 27.140625-30.441406 46.09375-58.382812 46.09375-33.085938 0-60-26.917969-60-60 0-17.402344 7.546875-33.929688 20.707031-45.34375l.011719-.011719c10.78125-9.347656 24.550781-14.644531 39.28125-14.644531zm-361.082032 293.984375s0-.003906.003907-.003906h.003906c16.246094-14.089844 37.113281-21.984375 59.078125-21.984375 49.625 0 89.996094 40.375 89.996094 90 0 37.6875-23.828125 71.6875-59.300782 84.605468-20.632812 7.515626-43.703124 7.1875-64.128906-1.019531-34.363281-13.757812-56.566406-46.566406-56.566406-83.585937 0-26.183594 11.269531-50.972656 30.914062-68.011719zm0 0"/><path d="m390.996094 345.996094c0 8.285156-6.714844 15-15 15s-15-6.714844-15-15 6.714844-15 15-15 15 6.714844 15 15zm0 0"/></svg>